<svg width="16" height="16" viewBox="0 0 16 16" fill="none" xmlns="http://www.w3.org/2000/svg">
<g id="vuesax/linear/clipboard-text">
<g id="clipboard-text">
<path id="Vector" d="M5.3335 8.1333H10.0002" stroke="#6E6E6E" stroke-width="1.5" stroke-miterlimit="10" stroke-linecap="round" stroke-linejoin="round"/>
<path id="Vector_2" d="M5.3335 10.8H8.2535" stroke="#6E6E6E" stroke-width="1.5" stroke-miterlimit="10" stroke-linecap="round" stroke-linejoin="round"/>
<path id="Vector_3" d="M6.66683 4.00004H9.3335C10.6668 4.00004 10.6668 3.33337 10.6668 2.66671C10.6668 1.33337 10.0002 1.33337 9.3335 1.33337H6.66683C6.00016 1.33337 5.3335 1.33337 5.3335 2.66671C5.3335 4.00004 6.00016 4.00004 6.66683 4.00004Z" stroke="#6E6E6E" stroke-width="1.5" stroke-miterlimit="10" stroke-linecap="round" stroke-linejoin="round"/>
<path id="Vector_4" d="M10.6667 2.68005C12.8867 2.80005 14 3.62005 14 6.66672V10.6667C14 13.3334 13.3333 14.6667 10 14.6667H6C2.66667 14.6667 2 13.3334 2 10.6667V6.66672C2 3.62672 3.11333 2.80005 5.33333 2.68005" stroke="#6E6E6E" stroke-width="1.5" stroke-miterlimit="10" stroke-linecap="round" stroke-linejoin="round"/>
</g>
</g>
</svg>
