<svg width="22" height="28" viewBox="0 0 22 28" fill="none" xmlns="http://www.w3.org/2000/svg">
<g filter="url(#filter0_i_4380_271)">
<path d="M1 5C1 2.79086 2.79086 1 5 1H17C19.2091 1 21 2.79086 21 5V23C21 25.2091 19.2091 27 17 27H5C2.79086 27 1 25.2091 1 23V5Z" fill="#565656"/>
</g>
<path d="M5 0.5C2.51472 0.5 0.5 2.51472 0.5 5V23C0.5 25.4853 2.51472 27.5 5 27.5H17C19.4853 27.5 21.5 25.4853 21.5 23V5C21.5 2.51472 19.4853 0.5 17 0.5H5Z" stroke="#3D3D3E"/>
<path d="M15.75 6C15.75 5.58579 15.4142 5.25 15 5.25C14.5858 5.25 14.25 5.58579 14.25 6H15.75ZM14.25 6V15H15.75V6H14.25ZM14 15.25H7V16.75H14V15.25ZM14.25 15C14.25 15.1381 14.1381 15.25 14 15.25V16.75C14.9665 16.75 15.75 15.9665 15.75 15H14.25Z" fill="#AEAEAE"/>
<path d="M10 13L7 16L10 19" stroke="#AEAEAE" stroke-width="1.5" stroke-linecap="round" stroke-linejoin="round"/>
<defs>
<filter id="filter0_i_4380_271" x="0" y="0" width="22" height="28" filterUnits="userSpaceOnUse" color-interpolation-filters="sRGB">
<feFlood flood-opacity="0" result="BackgroundImageFix"/>
<feBlend mode="normal" in="SourceGraphic" in2="BackgroundImageFix" result="shape"/>
<feColorMatrix in="SourceAlpha" type="matrix" values="0 0 0 0 0 0 0 0 0 0 0 0 0 0 0 0 0 0 127 0" result="hardAlpha"/>
<feOffset dy="-3"/>
<feComposite in2="hardAlpha" operator="arithmetic" k2="-1" k3="1"/>
<feColorMatrix type="matrix" values="0 0 0 0 0.239216 0 0 0 0 0.239216 0 0 0 0 0.243137 0 0 0 1 0"/>
<feBlend mode="normal" in2="shape" result="effect1_innerShadow_4380_271"/>
</filter>
</defs>
</svg>
