<svg width="22" height="28" viewBox="0 0 22 28" fill="none" xmlns="http://www.w3.org/2000/svg">
<g filter="url(#filter0_i_4380_276)">
<path d="M1 5C1 2.79086 2.79086 1 5 1H17C19.2091 1 21 2.79086 21 5V23C21 25.2091 19.2091 27 17 27H5C2.79086 27 1 25.2091 1 23V5Z" fill="#565656"/>
</g>
<path d="M5 0.5C2.51472 0.5 0.5 2.51472 0.5 5V23C0.5 25.4853 2.51472 27.5 5 27.5H17C19.4853 27.5 21.5 25.4853 21.5 23V5C21.5 2.51472 19.4853 0.5 17 0.5H5Z" stroke="#3D3D3E"/>
<path d="M6.48263 11.7929C6.30445 11.7929 6.21521 11.5775 6.34121 11.4515L10.6462 7.14645C10.8415 6.95118 11.1581 6.95118 11.3533 7.14645L15.6584 11.4515C15.7844 11.5775 15.6951 11.7929 15.5169 11.7929H13.4998C13.2236 11.7929 12.9998 12.0168 12.9998 12.2929V17.2929C12.9998 17.569 12.7759 17.7929 12.4998 17.7929H9.49978C9.22364 17.7929 8.99978 17.569 8.99978 17.2929V12.2929C8.99978 12.0168 8.77593 11.7929 8.49978 11.7929H6.48263Z" fill="#AEAEAE"/>
<defs>
<filter id="filter0_i_4380_276" x="0" y="0" width="22" height="28" filterUnits="userSpaceOnUse" color-interpolation-filters="sRGB">
<feFlood flood-opacity="0" result="BackgroundImageFix"/>
<feBlend mode="normal" in="SourceGraphic" in2="BackgroundImageFix" result="shape"/>
<feColorMatrix in="SourceAlpha" type="matrix" values="0 0 0 0 0 0 0 0 0 0 0 0 0 0 0 0 0 0 127 0" result="hardAlpha"/>
<feOffset dy="-3"/>
<feComposite in2="hardAlpha" operator="arithmetic" k2="-1" k3="1"/>
<feColorMatrix type="matrix" values="0 0 0 0 0.239216 0 0 0 0 0.239216 0 0 0 0 0.243137 0 0 0 1 0"/>
<feBlend mode="normal" in2="shape" result="effect1_innerShadow_4380_276"/>
</filter>
</defs>
</svg>
