<svg width="24" height="24" viewBox="0 0 24 24" fill="none" xmlns="http://www.w3.org/2000/svg">
<path d="M16.2982 3.43341L16.2978 3.43357L7.2687 6.43325C7.26857 6.4333 7.26843 6.43334 7.2683 6.43338C5.783 6.93015 4.70809 7.49316 4.01435 8.06675C3.31885 8.6418 3.05762 9.18107 3.05762 9.64282C3.05762 10.1044 3.3187 10.643 4.01397 11.2167C4.70757 11.789 5.78238 12.3502 7.2677 12.8445L16.2982 3.43341ZM16.2982 3.43341C18.2462 2.78408 19.5701 3.04897 20.2626 3.74237C20.9555 4.43629 21.22 5.76327 20.5757 7.71125C20.5756 7.7115 20.5755 7.71175 20.5754 7.71201L17.5658 16.7308L17.5657 16.7312M16.2982 3.43341L17.5657 16.7312M17.5657 16.7312C17.0714 18.2165 16.5096 19.2914 15.9365 19.985M17.5657 16.7312L15.9365 19.985M15.9365 19.985C15.3621 20.6802 14.8226 20.9416 14.3601 20.9416M15.9365 19.985L14.3601 20.9416M14.3601 20.9416C13.8976 20.9416 13.3581 20.6802 12.7837 19.985M14.3601 20.9416L12.7837 19.985M12.7837 19.985C12.2107 19.2914 11.6489 18.2167 11.1546 16.7315L12.7837 19.985ZM9.9477 13.7345L7.268 12.8446L11.1545 16.7312L10.2646 14.0515L10.1856 13.8136L9.9477 13.7345ZM13.0137 12.5126L13.0146 12.5117L16.8137 8.69262C16.8138 8.69248 16.814 8.69234 16.8141 8.6922C17.2989 8.2069 17.2988 7.41063 16.8137 6.92551C16.3284 6.44025 15.5318 6.44025 15.0466 6.92551L15.0456 6.92644L11.2466 10.7455C11.2465 10.7456 11.2464 10.7457 11.2464 10.7457C10.7613 11.231 10.7614 12.0274 11.2466 12.5126C11.4953 12.7613 11.8147 12.8791 12.1301 12.8791C12.4456 12.8791 12.765 12.7613 13.0137 12.5126Z" fill="white" stroke="white"/>
</svg>
